<svg width="1440" height="820" viewBox="0 0 1440 820" fill="none" xmlns="http://www.w3.org/2000/svg">
<path d="M1281 0H12V705H1281V0Z" fill="#F0F0F5"/>
<path d="M794.695 481.885C794.695 486.036 791.345 489.495 787.185 489.61C783.025 489.61 779.555 486.267 779.445 482.116L779.095 457.673C779.095 453.522 782.445 450.063 786.605 449.948C790.765 449.948 794.225 453.291 794.345 457.442L794.695 481.885Z" fill="#091E1D"/>
<path d="M688.285 483.155C688.285 487.305 684.935 490.764 680.775 490.88C676.625 490.88 673.155 487.536 673.035 483.385L672.695 458.942C672.695 454.791 676.045 451.332 680.205 451.217C684.365 451.217 687.825 454.561 687.945 458.711L688.285 483.155Z" fill="#091E1D"/>
<path d="M786.145 464.475C786.255 473.93 778.635 481.655 769.165 481.77L697.995 482.577C688.525 482.693 680.775 475.083 680.665 465.628L673.035 303.98C672.925 294.526 680.545 286.801 690.025 286.685L772.625 285.648C782.095 285.532 789.845 293.142 789.955 302.596L786.145 464.475Z" fill="#34CB79"/>
<path opacity="0.1" d="M789.495 318.853L789.835 302.827C789.725 293.373 781.985 285.763 772.515 285.878L689.905 286.916C680.435 287.031 672.805 294.756 672.925 304.211L673.735 320.237L789.495 318.853Z" fill="#161826"/>
<path d="M803.585 298.792C803.585 301.443 801.505 303.519 798.855 303.634L663.915 305.248C661.255 305.248 659.175 303.173 659.065 300.521L658.825 283.457C658.825 280.805 660.905 278.73 663.565 278.614L798.505 277C801.165 277 803.245 279.076 803.355 281.727L803.585 298.792Z" fill="#34CB79"/>
<path d="M731.955 346.179L747.675 336.725L743.855 346.525L731.955 346.179Z" fill="white"/>
<path d="M726.065 331.306C726.065 331.306 727.335 331.306 729.305 334.303C731.265 337.301 735.655 345.372 735.655 345.372L743.625 341.798L745.475 338.685C745.475 338.685 742.015 331.767 739.235 331.306H726.065Z" fill="white"/>
<path d="M721.675 333.381C721.675 333.381 724.105 330.729 726.065 332.113C728.035 333.497 731.495 339.262 731.495 339.262L725.835 349.177L715.665 343.528L721.675 333.381Z" fill="white"/>
<path d="M739.125 358.516L739.935 376.733L733.115 368.778L739.125 358.516Z" fill="white"/>
<path d="M755.065 360.361C755.065 360.361 754.485 361.514 750.905 361.86C747.325 362.206 738.085 362.206 738.085 362.206L737.385 370.968L739.235 374.081C739.235 374.081 746.975 374.427 748.715 372.121L755.065 360.361Z" fill="white"/>
<path d="M755.185 355.518C755.185 355.518 756.455 358.862 754.255 360.015C752.175 361.053 745.365 361.283 745.365 361.283L739.235 351.598L749.055 345.257L755.185 355.518Z" fill="white"/>
<path d="M725.255 358.286L709.085 349.753L719.485 347.909L725.255 358.286Z" fill="white"/>
<path d="M715.665 371.084C715.665 371.084 714.975 370.046 716.475 366.818C717.985 363.589 722.605 355.634 722.605 355.634L715.435 350.676L711.855 350.791C711.855 350.791 707.695 357.363 708.735 359.9L715.665 371.084Z" fill="white"/>
<path d="M719.715 373.62C719.715 373.62 716.135 372.928 716.365 370.622C716.475 368.201 719.715 362.321 719.715 362.321L731.155 361.975L731.615 373.62H719.715Z" fill="white"/>
<path d="M522.966 434.037C522.966 434.037 526.316 474.737 528.627 475.429C537.176 478.196 601.064 493.07 540.295 467.127L541.335 437.496L522.966 434.037Z" fill="#051F38"/>
<path d="M526.316 465.513C524.583 453.292 522.966 434.037 522.966 434.037L541.335 437.496L540.411 463.899C535.905 465.283 530.706 465.398 526.316 465.513Z" fill="#041523"/>
<path d="M566.174 480.848C568.138 485.344 534.634 477.389 528.627 475.429C528.396 475.429 528.28 475.083 528.049 474.506C535.559 476.582 558.433 481.309 566.174 480.848Z" fill="white"/>
<path d="M624.865 481.885C624.865 486.036 621.515 489.495 617.354 489.61C613.195 489.61 609.729 486.267 609.613 482.116L609.267 457.673C609.267 453.522 612.617 450.063 616.776 449.948C620.935 449.948 624.405 453.291 624.515 457.442L624.865 481.885Z" fill="#091E1D"/>
<path d="M518.46 483.155C518.46 487.305 515.11 490.764 510.951 490.88C506.792 490.88 503.326 487.536 503.21 483.385L502.864 458.942C502.864 454.791 506.214 451.332 510.373 451.217C514.532 451.217 517.998 454.561 518.114 458.711L518.46 483.155Z" fill="#091E1D"/>
<path d="M616.314 464.475C616.43 473.93 608.805 481.655 599.331 481.77L528.165 482.577C518.691 482.693 510.951 475.083 510.835 465.628L503.21 303.98C503.095 294.526 510.72 286.801 520.193 286.685L602.797 285.648C612.27 285.532 620.015 293.142 620.125 302.596L616.314 464.475Z" fill="#322153"/>
<path d="M619.664 318.853L620.015 302.827C619.895 293.373 612.155 285.763 602.682 285.878L520.078 286.916C510.604 287.031 502.979 294.756 503.095 304.211L503.904 320.237L619.664 318.853Z" fill="#1C0C3B"/>
<path d="M633.755 298.792C633.755 301.443 631.675 303.519 629.025 303.634L494.084 305.248C491.426 305.248 489.347 303.173 489.231 300.521L489 283.457C489 280.805 491.08 278.73 493.737 278.614L628.675 277C631.335 277 633.415 279.076 633.525 281.727L633.755 298.792Z" fill="#322153"/>
<path d="M562.13 346.179L577.842 336.725L574.03 346.525L562.13 346.179Z" fill="white"/>
<path d="M556.239 331.306C556.239 331.306 557.509 331.306 559.473 334.303C561.437 337.301 565.828 345.372 565.828 345.372L573.799 341.798L575.648 338.685C575.648 338.685 572.182 331.767 569.409 331.306H556.239Z" fill="white"/>
<path d="M551.848 333.381C551.848 333.381 554.275 330.729 556.239 332.113C558.203 333.497 561.668 339.262 561.668 339.262L556.008 349.177L545.841 343.528L551.848 333.381Z" fill="white"/>
<path d="M569.294 358.516L570.102 376.733L563.286 368.778L569.294 358.516Z" fill="white"/>
<path d="M585.237 360.361C585.237 360.361 584.659 361.514 581.078 361.86C577.496 362.206 568.254 362.206 568.254 362.206L567.561 370.968L569.409 374.082C569.409 374.082 577.15 374.427 578.883 372.121L585.237 360.361Z" fill="white"/>
<path d="M585.352 355.518C585.352 355.518 586.623 358.862 584.428 360.015C582.348 361.053 575.532 361.283 575.532 361.283L569.409 351.598L579.229 345.257L585.352 355.518Z" fill="white"/>
<path d="M555.545 358.286L539.37 349.754L549.653 347.909L555.545 358.286Z" fill="white"/>
<path d="M545.841 371.084C545.841 371.084 545.148 370.046 546.65 366.818C548.152 363.589 552.773 355.634 552.773 355.634L545.61 350.676L542.028 350.791C542.028 350.791 537.869 357.363 538.909 359.9L545.841 371.084Z" fill="white"/>
<path d="M550 373.62C550 373.62 546.419 372.928 546.65 370.622C546.765 368.201 550 362.321 550 362.321L561.438 361.975L561.9 373.62H550Z" fill="white"/>
</svg>
