<svg width="1369" height="816" viewBox="0 0 1369 816" fill="none" xmlns="http://www.w3.org/2000/svg">
<g clip-path="url(#clip0)">
<path d="M1360 55H2V871H1360V55Z" fill="#F0F0F5"/>
<path d="M755.512 479.534C755.512 483.665 752.327 487.107 748.372 487.222C744.418 487.222 741.119 483.895 741.014 479.764L740.681 455.44C740.681 451.31 743.866 447.868 747.821 447.753C751.776 447.753 755.065 451.08 755.179 455.211L755.512 479.534Z" fill="#091E1D"/>
<path d="M654.349 480.798C654.349 484.928 651.164 488.37 647.209 488.486C643.264 488.486 639.965 485.158 639.851 481.027L639.527 456.703C639.527 452.573 642.712 449.13 646.667 449.016C650.622 449.016 653.911 452.344 654.025 456.473L654.349 480.798Z" fill="#091E1D"/>
<path d="M747.384 462.209C747.488 471.618 740.244 479.305 731.241 479.42L663.58 480.223C654.577 480.338 647.209 472.765 647.104 463.357L639.851 302.497C639.746 293.089 646.99 285.402 656.003 285.287L734.53 284.255C743.533 284.139 750.901 291.712 751.006 301.12L747.384 462.209Z" fill="#34CB79"/>
<path opacity="0.1" d="M750.569 317.298L750.892 301.35C750.787 291.942 743.429 284.369 734.426 284.483L655.889 285.516C646.886 285.631 639.632 293.318 639.746 302.727L640.516 318.675L750.569 317.298Z" fill="#161826"/>
<path d="M763.964 297.334C763.964 299.973 761.986 302.038 759.467 302.153L631.18 303.759C628.651 303.759 626.674 301.694 626.569 299.055L626.341 282.074C626.341 279.435 628.319 277.37 630.848 277.255L759.134 275.649C761.663 275.649 763.64 277.715 763.745 280.353L763.964 297.334Z" fill="#34CB79"/>
<path d="M695.866 344.49L710.81 335.082L707.179 344.835L695.866 344.49Z" fill="white"/>
<path d="M690.266 329.69C690.266 329.69 691.473 329.69 693.346 332.672C695.21 335.656 699.383 343.687 699.383 343.687L706.96 340.131L708.719 337.033C708.719 337.033 705.429 330.149 702.787 329.69H690.266Z" fill="white"/>
<path d="M686.092 331.755C686.092 331.755 688.403 329.116 690.266 330.493C692.139 331.87 695.428 337.607 695.428 337.607L690.047 347.474L680.379 341.852L686.092 331.755Z" fill="white"/>
<path d="M702.682 356.767L703.452 374.895L696.968 366.979L702.682 356.767Z" fill="white"/>
<path d="M717.836 358.603C717.836 358.603 717.285 359.751 713.881 360.095C710.478 360.439 701.693 360.439 701.693 360.439L701.028 369.158L702.787 372.256C702.787 372.256 710.145 372.601 711.799 370.306L717.836 358.603Z" fill="white"/>
<path d="M717.95 353.784C717.95 353.784 719.157 357.111 717.066 358.259C715.089 359.292 708.614 359.521 708.614 359.521L702.786 349.883L712.122 343.573L717.95 353.784Z" fill="white"/>
<path d="M689.496 356.538L674.123 348.047L684.01 346.212L689.496 356.538Z" fill="white"/>
<path d="M680.379 369.274C680.379 369.274 679.723 368.241 681.149 365.029C682.584 361.815 686.977 353.899 686.977 353.899L680.16 348.965L676.757 349.08C676.757 349.08 672.802 355.62 673.79 358.144L680.379 369.274Z" fill="white"/>
<path d="M684.229 371.797C684.229 371.797 680.825 371.109 681.044 368.814C681.149 366.405 684.229 360.554 684.229 360.554L695.105 360.209L695.542 371.797H684.229Z" fill="white"/>
<path d="M497.181 431.92C497.181 431.92 500.366 472.421 502.563 473.11C510.69 475.863 571.428 490.665 513.655 464.848L514.644 435.362L497.181 431.92Z" fill="#051F38"/>
<path d="M500.366 463.242C498.718 451.081 497.181 431.92 497.181 431.92L514.644 435.362L513.766 461.636C509.482 463.013 504.539 463.128 500.366 463.242Z" fill="#041523"/>
<path d="M538.258 478.502C540.126 482.977 508.274 475.06 502.563 473.11C502.343 473.11 502.233 472.766 502.013 472.191C509.153 474.257 530.899 478.961 538.258 478.502Z" fill="white"/>
<path d="M594.056 479.534C594.056 483.665 590.871 487.107 586.915 487.222C582.961 487.222 579.666 483.895 579.556 479.764L579.227 455.44C579.227 451.31 582.412 447.868 586.365 447.753C590.319 447.753 593.618 451.08 593.723 455.211L594.056 479.534Z" fill="#091E1D"/>
<path d="M492.897 480.798C492.897 484.928 489.712 488.37 485.758 488.486C481.804 488.486 478.509 485.158 478.399 481.027L478.07 456.703C478.07 452.573 481.255 449.13 485.209 449.016C489.163 449.016 492.458 452.344 492.568 456.473L492.897 480.798Z" fill="#091E1D"/>
<path d="M585.926 462.209C586.037 471.618 578.788 479.305 569.781 479.42L502.124 480.223C493.117 480.338 485.758 472.765 485.648 463.357L478.399 302.497C478.29 293.089 485.539 285.402 494.545 285.287L573.076 284.255C582.082 284.139 589.445 291.712 589.549 301.12L585.926 462.209Z" fill="#322153"/>
<path d="M589.111 317.298L589.445 301.35C589.331 291.942 581.972 284.369 572.966 284.483L494.435 285.516C485.428 285.631 478.179 293.318 478.29 302.727L479.059 318.675L589.111 317.298Z" fill="#1C0C3B"/>
<path d="M602.507 297.334C602.507 299.973 600.53 302.038 598.011 302.153L469.723 303.759C467.196 303.759 465.219 301.694 465.109 299.055L464.89 282.074C464.89 279.435 466.867 277.37 469.393 277.255L597.678 275.649C600.207 275.649 602.184 277.715 602.289 280.353L602.507 297.334Z" fill="#322153"/>
<path d="M534.414 344.49L549.351 335.082L545.727 344.835L534.414 344.49Z" fill="white"/>
<path d="M528.813 329.69C528.813 329.69 530.021 329.69 531.888 332.672C533.755 335.656 537.93 343.687 537.93 343.687L545.507 340.131L547.265 337.033C547.265 337.033 543.97 330.149 541.334 329.69H528.813Z" fill="white"/>
<path d="M524.639 331.755C524.639 331.755 526.946 329.116 528.813 330.493C530.68 331.87 533.975 337.607 533.975 337.607L528.594 347.474L518.928 341.852L524.639 331.755Z" fill="white"/>
<path d="M541.225 356.767L541.993 374.895L535.513 366.979L541.225 356.767Z" fill="white"/>
<path d="M556.382 358.603C556.382 358.603 555.832 359.751 552.428 360.095C549.022 360.439 540.236 360.439 540.236 360.439L539.577 369.158L541.334 372.257C541.334 372.257 548.693 372.601 550.341 370.306L556.382 358.603Z" fill="white"/>
<path d="M556.491 353.784C556.491 353.784 557.699 357.111 555.612 358.259C553.635 359.292 547.155 359.521 547.155 359.521L541.334 349.883L550.67 343.573L556.491 353.784Z" fill="white"/>
<path d="M528.154 356.538L512.776 348.048L522.552 346.212L528.154 356.538Z" fill="white"/>
<path d="M518.928 369.274C518.928 369.274 518.269 368.241 519.697 365.029C521.125 361.815 525.518 353.899 525.518 353.899L518.708 348.965L515.303 349.08C515.303 349.08 511.349 355.62 512.338 358.144L518.928 369.274Z" fill="white"/>
<path d="M522.882 371.797C522.882 371.797 519.477 371.109 519.697 368.814C519.806 366.405 522.882 360.554 522.882 360.554L533.756 360.209L534.195 371.797H522.882Z" fill="white"/>
</g>
<defs>
<clipPath id="clip0">
<rect width="1369" height="816" fill="white"/>
</clipPath>
</defs>
</svg>
