<svg width="1440" height="820" viewBox="0 0 1440 820" fill="none" xmlns="http://www.w3.org/2000/svg">
<path d="M1440 0H0V820H1440V0Z" fill="#F0F0F5"/>
<path opacity="0.5" fill-rule="evenodd" clip-rule="evenodd" d="M1430.08 820H563.269C552.294 672.198 698.012 579.063 777.18 528.462C787.465 521.889 796.626 516.033 804.175 510.869C837.263 488.232 861.799 438.801 887.894 386.228C935.97 289.372 989.337 181.855 1111.23 211.591C1218.39 237.802 1379.45 349.332 1440 516.181V793.297C1437 802.129 1433.69 811.031 1430.08 820Z" fill="url(#paint0_linear)"/>
<path d="M1039 625C913.079 625 811 635.297 811 648C811 660.703 913.079 671 1039 671C1164.92 671 1267 660.703 1267 648C1267 635.297 1164.92 625 1039 625Z" fill="#F0F0F5"/>
<path d="M1245.38 558.817C1245.38 558.817 1213.03 651.056 1209.57 651.056C1206.1 651.056 1136.78 672.963 1198.01 645.291C1198.01 645.291 1204.94 544.981 1215.34 540.369C1225.74 535.758 1245.38 558.817 1245.38 558.817Z" fill="#965450"/>
<path d="M1221.12 625.229C1231.63 597.903 1245.38 558.817 1245.38 558.817C1245.38 558.817 1225.74 535.758 1215.34 540.369C1208.64 543.367 1203.33 586.489 1200.44 616.466C1207.37 619.234 1214.19 622.231 1221.12 625.229Z" fill="#76413B"/>
<path d="M1187.96 650.249C1187.96 650.249 1185.3 656.36 1210.72 649.903L1209.57 653.362C1209.57 653.362 1137.94 670.196 1187.96 650.249Z" fill="#051F38"/>
<path d="M1225.74 519.731C1225.74 519.731 1275.76 603.784 1273.57 606.436C1271.37 609.087 1243.65 676.191 1261.67 611.509C1261.67 611.509 1189.12 541.753 1192.24 530.8C1195.47 519.962 1225.74 519.731 1225.74 519.731Z" fill="#965450"/>
<path d="M1259.13 622.347C1259.13 622.347 1262.13 628.342 1273.45 604.706L1275.42 607.819C1275.3 607.819 1242.26 673.539 1259.13 622.347Z" fill="#051F38"/>
<path d="M1254.85 569.771C1241.45 546.134 1225.74 519.731 1225.74 519.731C1225.74 519.731 1195.47 519.962 1192.24 530.8C1190.16 537.833 1219.96 569.655 1241.11 591.101C1241.22 591.216 1249.42 582.108 1254.85 569.771Z" fill="#76413B"/>
<path d="M1257.51 393.364C1257.51 393.364 1226.89 359.351 1208.99 380.681C1191.08 402.011 1163.35 472.343 1167.4 501.168C1169.82 518.117 1186.11 536.219 1199.17 548.325L1188.19 610.125C1188.19 610.125 1233.25 622.231 1230.36 622.231C1228.63 622.231 1274.84 498.286 1279.46 459.084C1284.08 419.883 1257.51 393.364 1257.51 393.364Z" fill="#6633CC"/>
<path opacity="0.2" d="M1234.06 400.974C1242.61 400.858 1251.97 399.705 1260.17 396.362C1258.55 394.402 1257.51 393.364 1257.51 393.364C1257.51 393.364 1226.9 359.351 1208.99 380.681C1206.22 384.025 1203.21 388.406 1200.21 393.71C1210.26 399.244 1222.97 401.204 1234.06 400.974Z" fill="#352C38"/>
<path opacity="0.2" d="M1188.19 417.461C1175.48 446.401 1164.74 482.374 1167.4 501.053C1169.71 517.886 1185.88 535.873 1198.94 547.979C1203.56 516.618 1211.99 473.035 1217.08 447.9C1204.48 440.752 1194.08 430.49 1188.19 417.461Z" fill="#352C38"/>
<path d="M1169.13 325.337L1150.65 361.08C1150.65 361.08 1118.3 343.209 1113.68 343.209C1109.06 343.209 1087.1 343.785 1097.5 348.397C1097.5 348.397 1092.88 351.279 1098.08 352.432C1098.08 352.432 1093.46 356.468 1099.24 357.044L1112.52 356.468C1112.52 356.468 1139.09 380.681 1152.38 384.139C1165.66 387.598 1187.04 342.632 1187.04 342.632L1169.13 325.337Z" fill="#965450"/>
<path d="M1172.13 350.934C1175.02 351.972 1178.03 353.01 1181.03 354.047C1184.73 347.591 1187.04 342.517 1187.04 342.517L1169.13 325.223L1158.96 344.823C1163.01 347.36 1167.51 349.32 1172.13 350.934Z" fill="#76413B"/>
<path d="M1192.24 308.043C1192.24 308.043 1174.91 305.161 1168.55 314.385C1162.2 323.608 1159.31 338.597 1159.31 338.597L1184.15 350.704L1192.24 308.043Z" fill="#34CB79"/>
<path opacity="0.1" d="M1182.65 340.673C1176.29 335.715 1169.02 329.489 1164.28 321.994C1160.81 330.065 1159.2 338.482 1159.2 338.482L1184.03 350.588L1185.54 342.748C1184.61 342.172 1183.57 341.48 1182.65 340.673Z" fill="#161826"/>
<path d="M1070.7 338.943C1071.39 340.788 1070.35 342.863 1068.5 343.555L1054.87 348.513C1053.02 349.205 1050.94 348.167 1050.25 346.322L1044.82 331.218C1044.13 329.373 1045.17 327.298 1047.02 326.606L1060.65 321.648C1062.5 320.957 1064.58 321.994 1065.27 323.839L1070.7 338.943Z" fill="#23173B"/>
<path d="M1081.67 327.644L1038.93 342.979C1031.42 345.63 1027.61 353.932 1030.26 361.426L1043.43 397.976C1046.09 405.47 1054.41 409.275 1061.92 406.623L1104.66 391.289C1112.17 388.637 1115.99 380.335 1113.33 372.841L1100.16 336.291C1097.39 328.797 1089.18 324.877 1081.67 327.644ZM1109.17 376.185C1110.21 379.182 1108.71 382.526 1105.7 383.564L1087.34 332.832C1090.34 331.795 1093.69 333.294 1094.73 336.291L1109.17 376.185Z" fill="#322153"/>
<path d="M1067.93 323.608C1068.5 325.223 1067.7 327.067 1066.08 327.644L1046.67 334.677C1045.05 335.254 1043.2 334.447 1042.63 332.832L1041.01 328.336C1040.43 326.722 1041.24 324.877 1042.86 324.3L1062.27 317.267C1063.88 316.691 1065.73 317.498 1066.31 319.112L1067.93 323.608Z" fill="#6633CC"/>
<path d="M1095.19 345.515C1095.19 345.515 1102.47 342.979 1103.74 344.477C1104.9 345.861 1097.62 347.936 1097.96 348.052C1098.2 348.167 1105.82 346.438 1106.51 348.052C1107.21 349.666 1098.43 352.548 1098.43 352.548C1098.43 352.548 1106.74 350.242 1107.32 351.972C1107.9 353.701 1098.66 356.238 1098.66 356.238L1098.2 352.433L1097.62 348.052L1095.19 345.515Z" fill="#965450"/>
<path d="M1105.47 343.555C1105.47 343.555 1099.81 339.75 1099.81 338.482C1099.7 337.098 1114.83 343.44 1114.83 343.44L1105.47 343.555Z" fill="#965450"/>
<path d="M1217.08 305.161C1215.92 307.236 1221.58 258.926 1221.58 258.926L1195.36 276.567C1195.36 276.567 1197.67 307.467 1194.78 307.582C1193.62 307.582 1189.12 309.312 1184.15 311.156C1185.3 316.921 1187.62 318.189 1189.58 323.724C1204.25 323.609 1220.19 323.263 1229.21 309.888C1224.01 308.159 1218.58 302.278 1217.08 305.161Z" fill="#76413B"/>
<path d="M1192.24 308.043L1191.08 304.008L1219.96 297.666L1221.12 304.584C1221.12 304.584 1255.78 316.114 1260.4 342.056C1265.02 367.998 1262.71 384.717 1257.51 393.364C1257.51 393.364 1217.08 399.129 1199.75 390.482C1182.42 381.834 1164.51 317.267 1173.75 311.502C1182.99 305.737 1192.24 308.043 1192.24 308.043Z" fill="#34CB79"/>
<path opacity="0.1" d="M1230.02 379.874C1216.15 379.067 1199.17 377.453 1187.62 368.921C1185.42 367.307 1183.46 365.577 1181.61 363.617C1186.81 376.415 1193.28 387.253 1199.75 390.482C1217.08 399.129 1257.51 393.364 1257.51 393.364C1259.82 389.559 1261.55 384.14 1262.36 376.992C1251.97 380.105 1241.11 380.566 1230.02 379.874Z" fill="#161826"/>
<path d="M1228.63 359.927L1258.09 357.621C1258.09 357.621 1250.58 409.505 1241.91 427.377C1233.25 445.248 1193.39 515.58 1208.99 476.378C1208.99 476.378 1188.77 506.933 1206.1 475.802C1206.1 475.802 1187.04 500.591 1203.79 474.073C1203.79 474.073 1184.15 496.556 1204.94 464.849C1204.94 464.849 1189.35 472.343 1206.68 459.66L1223.43 415.847L1228.63 359.927Z" fill="#965450"/>
<path d="M1257.4 361.772C1257.86 359.12 1258.09 357.506 1258.09 357.506L1228.63 359.812L1228.4 362.81C1237.99 362.81 1247.69 362.349 1257.4 361.772Z" fill="#76413B"/>
<path d="M1197.78 227.911C1197.78 227.911 1212.45 219.379 1233.94 233.445C1248.15 242.784 1247.46 272.647 1216.73 292.247C1180.22 315.538 1197.78 227.911 1197.78 227.911Z" fill="#051F38"/>
<path d="M1218.12 243.822C1218.12 243.822 1201.59 231.024 1187.5 237.25C1169.71 245.321 1171.56 264.114 1171.21 280.141C1170.75 301.471 1187.62 305.507 1192.7 305.737C1200.21 306.198 1230.82 304.354 1218.12 243.822Z" fill="#965450"/>
<path d="M1219.73 263.769C1219.73 263.769 1220.43 260.54 1225.97 263.077C1233.02 266.42 1229.21 283.254 1221.35 282.793C1213.38 282.447 1219.73 263.769 1219.73 263.769Z" fill="#965450"/>
<path d="M1219.73 263.769C1219.73 263.769 1220.66 275.298 1218 275.414C1215.23 275.529 1212.34 254.545 1219.96 254.545C1227.59 254.775 1219.73 263.769 1219.73 263.769Z" fill="#051F38"/>
<path d="M1219.73 263.769C1219.73 263.769 1214.07 238.172 1180.45 242.438C1180.45 242.438 1185.3 232.869 1195.93 228.372C1210.37 222.261 1231.98 246.82 1225.97 263.077C1225.97 263.077 1223.2 263.423 1219.73 263.769Z" fill="#34CB79"/>
<path d="M1233.94 240.132C1233.94 240.132 1232.09 209.578 1239.49 209.578C1246.88 209.578 1238.91 235.29 1238.91 235.29C1238.91 235.29 1245.03 198.51 1262.83 204.044C1280.62 209.578 1249.89 235.29 1249.89 235.29C1249.89 235.29 1263.98 222.376 1268.95 226.758C1273.8 231.024 1248.73 239.671 1248.73 239.671C1248.73 239.671 1267.79 234.137 1270.22 243.361C1272.65 252.469 1233.37 251.201 1233.94 240.132Z" fill="#051F38"/>
<path d="M1172.13 257.889C1172.13 257.889 1172.13 257.658 1172.37 257.197C1172.6 256.736 1172.83 256.159 1173.41 255.583C1173.98 255.006 1174.68 254.315 1175.6 253.853C1175.83 253.738 1176.06 253.623 1176.41 253.508C1176.64 253.392 1176.99 253.277 1177.22 253.277C1177.56 253.277 1177.8 253.162 1178.14 253.162H1179.07C1179.64 253.162 1180.22 253.392 1180.8 253.623C1181.38 253.853 1181.84 254.084 1182.3 254.43C1182.76 254.776 1183.11 255.122 1183.46 255.468C1183.8 255.813 1184.03 256.159 1184.15 256.505C1184.27 256.621 1184.38 256.851 1184.38 256.966C1184.5 257.082 1184.5 257.312 1184.61 257.428C1184.73 257.774 1184.84 258.004 1184.84 258.235C1184.96 258.696 1184.96 258.927 1184.96 258.927C1184.96 258.927 1184.73 258.811 1184.27 258.696C1184.03 258.581 1183.8 258.465 1183.57 258.35C1183.34 258.235 1182.99 258.119 1182.65 257.889C1182.3 257.774 1182.07 257.543 1181.72 257.428C1181.38 257.312 1181.03 257.197 1180.68 257.082C1180.34 256.966 1179.99 256.851 1179.64 256.736C1179.3 256.736 1178.95 256.621 1178.6 256.621H1178.14C1178.03 256.621 1177.8 256.621 1177.56 256.621C1177.22 256.621 1176.87 256.736 1176.52 256.736C1176.18 256.851 1175.83 256.851 1175.48 256.966C1175.14 257.082 1174.79 257.082 1174.45 257.197C1173.75 257.428 1173.17 257.543 1172.83 257.658C1172.48 257.889 1172.13 257.889 1172.13 257.889Z" fill="#051F38"/>
<path d="M1181.03 289.595C1181.03 289.595 1199.98 290.172 1201.25 289.941C1202.4 289.711 1190.62 298.935 1181.03 289.595Z" fill="white"/>
<path d="M1182.3 268.496C1182.3 268.496 1182.3 268.726 1182.19 269.188C1182.07 269.649 1181.95 270.225 1181.72 271.032C1181.61 271.378 1181.49 271.839 1181.26 272.185C1181.15 272.416 1181.03 272.647 1180.91 272.762C1180.8 272.992 1180.57 273.223 1180.45 273.338C1180.11 273.684 1179.76 274.145 1179.18 274.376C1179.07 274.491 1178.95 274.491 1178.72 274.607L1178.37 274.722C1178.14 274.837 1177.8 274.837 1177.45 274.837C1176.87 274.837 1176.18 274.722 1175.72 274.261C1175.25 273.915 1174.91 273.454 1174.68 272.877C1174.44 272.416 1174.33 271.955 1174.21 271.494C1174.1 271.032 1174.1 270.571 1174.1 270.225C1174.1 269.418 1174.1 268.842 1174.21 268.381C1174.33 267.919 1174.44 267.689 1174.44 267.689C1174.44 267.689 1174.44 268.726 1174.79 270.225C1174.91 270.917 1175.14 271.839 1175.6 272.531C1175.83 272.877 1176.06 273.223 1176.41 273.454C1176.76 273.684 1177.1 273.8 1177.45 273.8C1177.68 273.8 1177.8 273.8 1178.03 273.684L1178.37 273.569C1178.37 273.569 1178.49 273.454 1178.6 273.454C1178.95 273.338 1179.3 272.992 1179.64 272.762C1179.99 272.416 1180.22 272.07 1180.45 271.724C1180.68 271.378 1180.91 271.032 1181.03 270.686C1181.38 269.995 1181.61 269.418 1181.84 269.072C1182.19 268.726 1182.3 268.496 1182.3 268.496Z" fill="#1F2733"/>
<path d="M1201.36 269.995C1201.36 269.995 1201.36 270.225 1201.25 270.686C1201.13 271.148 1201.02 271.724 1200.79 272.531C1200.67 272.877 1200.55 273.338 1200.32 273.684C1200.21 273.915 1200.09 274.145 1199.98 274.261C1199.86 274.491 1199.63 274.722 1199.52 274.837C1199.17 275.183 1198.82 275.644 1198.24 275.875C1198.13 275.99 1198.01 275.99 1197.78 276.106L1197.44 276.221C1197.2 276.336 1196.86 276.336 1196.51 276.336C1195.93 276.336 1195.24 276.221 1194.78 275.76C1194.32 275.414 1193.97 274.953 1193.74 274.376C1193.51 273.915 1193.39 273.454 1193.28 272.992C1193.16 272.531 1193.16 272.07 1193.16 271.724C1193.16 270.917 1193.16 270.341 1193.28 269.879C1193.39 269.418 1193.51 269.188 1193.51 269.188C1193.51 269.188 1193.51 270.225 1193.85 271.724C1193.97 272.416 1194.2 273.338 1194.66 274.03C1194.89 274.376 1195.12 274.722 1195.47 274.953C1195.82 275.183 1196.16 275.298 1196.51 275.298C1196.74 275.298 1196.86 275.298 1197.09 275.183L1197.44 275.068C1197.44 275.068 1197.55 274.953 1197.67 274.953C1198.01 274.837 1198.36 274.491 1198.71 274.261C1199.05 273.915 1199.28 273.569 1199.52 273.223C1199.75 272.877 1199.98 272.531 1200.09 272.185C1200.44 271.494 1200.67 270.917 1200.9 270.571C1201.25 270.225 1201.36 269.995 1201.36 269.995Z" fill="#1F2733"/>
<path d="M1222.39 279.565C1222.74 279.103 1222.97 278.757 1223.2 278.296C1223.43 277.835 1223.55 277.374 1223.66 276.913C1223.66 276.682 1223.66 276.451 1223.66 276.221C1223.66 276.106 1223.55 275.99 1223.55 275.99C1223.55 275.875 1223.43 275.76 1223.31 275.76C1223.2 275.644 1223.2 275.644 1223.08 275.529L1222.85 275.298C1222.74 275.183 1222.62 275.183 1222.51 275.183L1222.16 275.068L1221.93 274.953V274.722C1221.58 273.454 1221.47 272.301 1221.35 271.032C1221.23 270.456 1221.23 269.764 1221.35 269.188C1221.35 268.496 1221.47 267.919 1221.7 267.228C1221.81 266.882 1222.04 266.536 1222.39 266.305C1222.74 266.075 1223.2 265.844 1223.55 265.959C1224.01 265.959 1224.24 266.075 1224.58 266.19C1224.93 266.305 1225.28 266.421 1225.51 266.651C1225.74 266.882 1226.09 267.112 1226.2 267.343C1226.43 267.574 1226.55 267.919 1226.66 268.15C1226.9 268.726 1227.01 269.418 1226.9 269.995C1226.78 269.418 1226.66 268.842 1226.32 268.265C1226.2 268.035 1225.97 267.804 1225.74 267.573C1225.51 267.343 1225.28 267.228 1225.05 267.112C1224.82 266.997 1224.58 266.882 1224.24 266.882C1224.01 266.882 1223.66 266.766 1223.43 266.766C1222.97 266.766 1222.74 267.112 1222.62 267.573C1222.27 268.611 1222.39 269.764 1222.39 270.917C1222.51 272.07 1222.62 273.338 1222.85 274.491L1222.62 274.146L1222.97 274.376C1223.08 274.491 1223.2 274.491 1223.31 274.607L1223.66 274.837C1223.78 274.953 1223.89 275.068 1224.01 275.183C1224.12 275.299 1224.24 275.414 1224.24 275.644C1224.35 275.76 1224.35 275.99 1224.35 276.106C1224.47 276.451 1224.35 276.682 1224.35 277.028C1224.24 277.604 1223.89 278.066 1223.55 278.527C1223.2 278.873 1222.74 279.334 1222.39 279.565Z" fill="#76413B"/>
<path d="M1184.03 284.407C1183.46 284.522 1182.99 284.522 1182.53 284.522C1182.07 284.522 1181.61 284.407 1181.26 284.292C1180.8 284.176 1180.45 283.946 1180.11 283.831C1179.88 283.715 1179.76 283.6 1179.53 283.485C1179.3 283.369 1179.18 283.254 1178.95 283.139L1178.26 282.562L1178.37 282.101C1179.53 278.757 1180.68 275.529 1181.84 272.301C1182.99 269.072 1184.27 265.729 1185.54 262.5C1184.73 265.844 1183.8 269.303 1182.99 272.647C1182.07 275.99 1181.15 279.334 1180.22 282.678L1179.76 281.64C1179.99 281.64 1180.22 281.755 1180.45 281.755C1180.68 281.755 1180.92 281.87 1181.03 281.986C1181.38 282.101 1181.84 282.332 1182.19 282.562C1182.53 282.793 1182.88 283.139 1183.23 283.485C1183.46 283.6 1183.8 283.946 1184.03 284.407Z" fill="#76413B"/>
<path d="M1190.85 256.505C1190.85 256.505 1190.97 256.159 1191.31 255.813C1191.54 255.582 1191.66 255.352 1192.01 255.006C1192.35 254.775 1192.58 254.429 1193.05 254.199C1193.39 253.968 1193.85 253.622 1194.43 253.392C1194.89 253.161 1195.47 252.931 1196.05 252.7C1196.63 252.585 1197.32 252.354 1198.01 252.354C1198.36 252.354 1198.71 252.354 1199.05 252.354L1200.09 252.469C1200.79 252.469 1201.48 252.815 1202.06 252.931C1202.63 253.161 1203.21 253.507 1203.79 253.738C1204.37 254.084 1204.83 254.429 1205.18 254.775C1205.64 255.121 1205.98 255.582 1206.22 255.928C1206.56 256.274 1206.79 256.62 1207.02 256.966C1207.26 257.312 1207.37 257.658 1207.49 257.888C1207.72 258.35 1207.83 258.695 1207.83 258.695C1207.83 258.695 1207.49 258.58 1207.02 258.35C1206.79 258.234 1206.45 258.119 1206.1 257.888C1205.75 257.658 1205.41 257.542 1204.94 257.427C1204.6 257.312 1204.14 257.081 1203.67 256.851C1203.21 256.735 1202.75 256.505 1202.29 256.389C1201.83 256.274 1201.36 256.159 1200.9 256.044C1200.44 256.044 1199.98 255.813 1199.4 255.813L1198.71 255.698H1198.01C1197.55 255.698 1196.97 255.698 1196.51 255.698C1196.05 255.698 1195.59 255.698 1195.12 255.813C1194.66 255.813 1194.2 255.928 1193.74 255.928C1192.93 256.044 1192.12 256.159 1191.66 256.274C1191.2 256.505 1190.85 256.505 1190.85 256.505Z" fill="#051F38"/>
<path d="M1174.91 650.825C1174.91 654.976 1171.56 658.435 1167.4 658.55C1163.24 658.55 1159.77 655.207 1159.66 651.056L1159.31 626.613C1159.31 622.462 1162.66 619.003 1166.82 618.888C1170.98 618.888 1174.44 622.231 1174.56 626.382L1174.91 650.825Z" fill="#091E1D"/>
<path d="M1068.5 652.095C1068.5 656.245 1065.15 659.704 1060.99 659.82C1056.84 659.82 1053.37 656.476 1053.25 652.325L1052.91 627.882C1052.91 623.731 1056.26 620.272 1060.42 620.157C1064.58 620.157 1068.04 623.501 1068.16 627.651L1068.5 652.095Z" fill="#091E1D"/>
<path d="M1166.36 633.415C1166.47 642.87 1158.85 650.595 1149.38 650.71L1078.21 651.517C1068.74 651.633 1060.99 644.023 1060.88 634.568L1053.25 472.92C1053.14 463.466 1060.76 455.741 1070.24 455.625L1152.84 454.588C1162.31 454.472 1170.06 462.082 1170.17 471.536L1166.36 633.415Z" fill="#34CB79"/>
<path opacity="0.1" d="M1169.71 487.793L1170.05 471.767C1169.94 462.313 1162.2 454.703 1152.73 454.818L1070.12 455.856C1060.65 455.971 1053.02 463.696 1053.14 473.151L1053.95 489.177L1169.71 487.793Z" fill="#161826"/>
<path d="M1183.8 467.732C1183.8 470.383 1181.72 472.459 1179.07 472.574L1044.13 474.188C1041.47 474.188 1039.39 472.113 1039.28 469.461L1039.04 452.397C1039.04 449.745 1041.12 447.67 1043.78 447.554L1178.72 445.94C1181.38 445.94 1183.46 448.016 1183.57 450.667L1183.8 467.732Z" fill="#34CB79"/>
<path d="M1112.17 515.119L1127.89 505.665L1124.07 515.465L1112.17 515.119Z" fill="white"/>
<path d="M1106.28 500.246C1106.28 500.246 1107.55 500.246 1109.52 503.243C1111.48 506.241 1115.87 514.312 1115.87 514.312L1123.84 510.738L1125.69 507.625C1125.69 507.625 1122.23 500.707 1119.45 500.246H1106.28Z" fill="white"/>
<path d="M1101.89 502.321C1101.89 502.321 1104.32 499.669 1106.28 501.053C1108.25 502.437 1111.71 508.202 1111.71 508.202L1106.05 518.117L1095.88 512.468L1101.89 502.321Z" fill="white"/>
<path d="M1119.34 527.456L1120.15 545.673L1113.33 537.718L1119.34 527.456Z" fill="white"/>
<path d="M1135.28 529.301C1135.28 529.301 1134.7 530.454 1131.12 530.8C1127.54 531.146 1118.3 531.146 1118.3 531.146L1117.6 539.908L1119.45 543.021C1119.45 543.021 1127.19 543.367 1128.93 541.061L1135.28 529.301Z" fill="white"/>
<path d="M1135.4 524.458C1135.4 524.458 1136.67 527.802 1134.47 528.955C1132.39 529.993 1125.58 530.223 1125.58 530.223L1119.45 520.538L1129.27 514.197L1135.4 524.458Z" fill="white"/>
<path d="M1105.47 527.226L1089.3 518.693L1099.7 516.849L1105.47 527.226Z" fill="white"/>
<path d="M1095.88 540.024C1095.88 540.024 1095.19 538.986 1096.69 535.758C1098.2 532.529 1102.82 524.574 1102.82 524.574L1095.65 519.616L1092.07 519.731C1092.07 519.731 1087.91 526.303 1088.95 528.84L1095.88 540.024Z" fill="white"/>
<path d="M1099.93 542.56C1099.93 542.56 1096.35 541.868 1096.58 539.562C1096.69 537.141 1099.93 531.261 1099.93 531.261L1111.37 530.915L1111.83 542.56H1099.93Z" fill="white"/>
<path d="M864.247 605.167C864.247 605.167 861.706 645.868 859.511 646.675C851.077 649.557 787.42 665.699 847.611 638.604L845.994 608.972L864.247 605.167Z" fill="#051F38"/>
<path d="M861.59 636.759C863.092 624.422 864.247 605.167 864.247 605.167L845.994 608.972L847.496 635.376C852.001 636.644 857.2 636.759 861.59 636.759Z" fill="#041523"/>
<path d="M822.079 652.786C820.231 657.282 853.503 648.75 859.511 646.675C859.626 646.56 859.857 646.329 860.088 645.752C852.579 647.828 829.82 653.016 822.079 652.786Z" fill="white"/>
<path d="M903.181 602.977C903.181 602.977 906.531 643.677 908.842 644.369C917.391 647.136 981.279 662.01 920.51 636.067L921.55 606.436L903.181 602.977Z" fill="#051F38"/>
<path d="M906.531 634.453C904.798 622.232 903.181 602.977 903.181 602.977L921.55 606.436L920.626 632.839C916.12 634.223 910.921 634.338 906.531 634.453Z" fill="#041523"/>
<path d="M946.389 649.788C948.353 654.284 914.849 646.329 908.842 644.369C908.611 644.369 908.495 644.023 908.264 643.446C915.774 645.522 938.648 650.249 946.389 649.788Z" fill="white"/>
<path d="M914.387 383.218C914.387 383.218 931.024 517.31 927.673 625.806C927.673 625.806 907.802 631.34 902.603 627.305C898.098 601.593 898.675 551.554 891.975 514.427C885.62 479.377 883.079 450.667 883.079 450.667L880.999 448.361C880.999 448.361 867.367 617.85 864.363 630.764C847.149 634.799 841.719 630.072 841.719 630.072C841.719 630.072 833.863 418.038 838.715 383.794C844.954 339.059 914.387 383.218 914.387 383.218Z" fill="#34CB79"/>
<path opacity="0.1" d="M917.39 411.004C915.657 393.709 914.271 383.333 914.271 383.333C914.271 383.333 844.953 339.173 838.599 383.909C838.021 388.06 837.674 394.862 837.328 403.51C842.527 406.392 907.454 415.616 917.39 411.004Z" fill="#161826"/>
<path opacity="0.1" d="M881.808 446.978C882.617 456.086 886.776 485.488 891.975 514.427C898.675 551.669 898.098 601.593 902.603 627.305C907.802 631.34 927.673 625.806 927.673 625.806C929.637 559.048 924.208 482.605 919.586 433.719C908.611 440.636 894.632 443.98 881.808 446.978Z" fill="#161826"/>
<path d="M887.7 265.959C887.816 251.893 888.855 233.33 888.855 233.33L861.128 225.72C861.128 225.72 862.052 250.855 862.861 266.19C850.268 270.456 835.943 278.527 835.943 278.527L888.278 291.786L906.878 273.8C906.878 273.8 897.52 269.072 887.7 265.959Z" fill="#FFB39F"/>
<path d="M887.7 265.959C887.815 251.893 888.855 233.33 888.855 233.33L861.128 225.72C861.128 225.72 862.052 250.855 862.861 266.19C850.268 270.456 835.943 278.527 835.943 278.527L888.278 291.786L913.001 270.571C913.001 270.571 897.636 264.806 887.7 265.959Z" fill="#E09B8D"/>
<path d="M858.702 199.086C858.702 199.086 865.98 175.565 885.158 179.255C904.336 182.944 907.109 207.964 909.535 224.798C911.961 241.747 906.531 256.966 891.513 258.811C878.458 260.425 855.698 257.888 858.702 199.086Z" fill="#FFB39F"/>
<path d="M859.626 218.802C859.626 218.802 858.471 215.689 853.734 219.148C847.727 223.529 853.85 239.671 861.128 237.942C868.407 236.212 859.626 218.802 859.626 218.802Z" fill="#FFB39F"/>
<path d="M852.926 185.596C853.388 185.481 862.399 184.789 856.391 185.366C861.937 191.361 861.359 192.86 868.984 194.244C873.028 206.696 865.056 214.19 865.056 214.19L867.251 229.179L861.475 229.756C861.475 229.756 861.59 219.379 857.2 218.456C852.81 217.534 851.539 222.838 851.539 222.838C842.412 211.308 833.17 188.709 852.926 185.596Z" fill="#051F38"/>
<path d="M905.261 177.179C908.958 168.071 902.719 160 902.719 160C903.759 163.344 903.297 166.457 902.257 168.993C901.564 166.457 900.293 163.69 897.982 160.922C897.982 160.922 898.675 170.146 886.083 168.993C873.49 167.84 851.424 169.57 850.5 189.055C849.46 208.541 868.291 194.359 868.291 194.359C868.291 194.359 905.838 204.851 911.268 174.643L905.261 177.179Z" fill="#051F38"/>
<path d="M887.469 210.848C887.469 210.848 887.122 210.848 886.66 210.732C886.082 210.617 885.389 210.502 884.581 210.386C884.118 210.271 883.772 210.271 883.31 210.271C882.848 210.156 882.386 210.156 881.923 210.156C881.461 210.156 880.999 210.156 880.421 210.156C880.19 210.156 879.959 210.156 879.728 210.156L879.035 210.271C878.573 210.271 878.111 210.386 877.533 210.502C877.071 210.617 876.609 210.732 876.147 210.848C875.685 210.963 875.223 211.193 874.761 211.309C874.298 211.424 873.952 211.655 873.49 211.77C873.143 211.885 872.681 212.001 872.45 212.231C872.103 212.346 871.872 212.462 871.641 212.577C871.179 212.808 870.833 212.923 870.833 212.923C870.833 212.923 870.948 212.577 871.179 212.116C871.295 211.885 871.41 211.539 871.641 211.193C871.872 210.848 872.103 210.502 872.45 210.156C872.797 209.81 873.028 209.349 873.49 209.003C873.952 208.657 874.414 208.311 874.992 207.965C875.569 207.735 876.147 207.389 876.725 207.158C877.418 206.927 877.995 206.812 878.689 206.697L879.728 206.582C880.075 206.582 880.422 206.582 880.768 206.697C881.115 206.697 881.461 206.812 881.692 206.812C882.039 206.927 882.27 206.927 882.617 207.043C883.194 207.273 883.772 207.389 884.234 207.735C884.696 207.965 885.158 208.311 885.62 208.542C885.967 208.772 886.314 209.118 886.66 209.349C886.891 209.579 887.122 209.925 887.353 210.04C887.238 210.502 887.469 210.848 887.469 210.848Z" fill="#051F38"/>
<path d="M906.993 210.27C906.993 210.27 906.762 210.155 906.3 210.04C905.838 209.924 905.26 209.694 904.683 209.463C904.336 209.348 903.99 209.232 903.643 209.117C903.296 209.002 902.95 208.887 902.603 208.887C902.257 208.887 901.91 208.771 901.564 208.656C901.448 208.656 901.217 208.656 901.101 208.541H900.639C900.293 208.425 899.946 208.656 899.6 208.541C899.253 208.656 898.906 208.656 898.56 208.771C898.213 208.887 897.867 209.002 897.52 209.117C897.173 209.232 896.827 209.348 896.596 209.463C896.249 209.578 895.903 209.694 895.672 209.809C895.44 209.924 895.209 210.04 894.978 210.04C894.516 210.155 894.285 210.27 894.285 210.27C894.285 210.27 894.285 210.04 894.516 209.578C894.632 209.348 894.632 209.117 894.863 208.771C894.978 208.425 895.209 208.195 895.44 207.849C895.672 207.503 895.903 207.157 896.249 206.811C896.596 206.465 897.058 206.235 897.404 205.889C897.867 205.658 898.444 205.428 898.906 205.197C899.484 205.082 900.062 204.966 900.639 204.966C900.986 204.966 901.217 204.966 901.564 204.966C901.91 204.966 902.141 205.082 902.372 205.197C902.603 205.197 902.95 205.312 903.181 205.428C903.412 205.543 903.643 205.658 903.874 205.773C904.798 206.35 905.492 206.926 905.954 207.618C906.416 208.31 906.647 208.887 906.878 209.348C906.993 210.04 906.993 210.27 906.993 210.27Z" fill="#051F38"/>
<path d="M892.783 211.538C893.476 213.037 894.17 214.651 894.863 216.15C895.209 216.957 895.44 217.649 895.787 218.456L896.711 220.762L897.635 223.068C897.982 223.875 898.213 224.567 898.56 225.374L899.022 226.527C899.137 226.873 899.368 227.334 899.484 227.68C899.831 228.372 900.177 229.064 900.524 229.871L900.87 230.793L900.177 231.139C899.137 231.6 898.098 232.177 896.942 232.638C895.903 233.099 894.747 233.56 893.592 233.906C894.516 233.099 895.44 232.407 896.365 231.716C897.289 231.024 898.329 230.332 899.253 229.64L898.906 230.909C898.444 230.217 897.982 229.41 897.52 228.718C897.058 228.026 896.711 227.219 896.365 226.412L895.787 225.259L895.325 224.106C895.094 223.299 894.747 222.492 894.516 221.685L893.823 219.263C893.592 218.456 893.476 217.649 893.245 216.842C893.13 214.997 892.899 213.268 892.783 211.538Z" fill="#DD9078"/>
<path d="M859.28 234.598C858.817 234.368 858.355 234.022 858.009 233.56C857.662 233.215 857.2 232.753 856.969 232.177C856.853 231.946 856.738 231.6 856.738 231.254C856.738 231.139 856.738 230.909 856.738 230.793C856.738 230.678 856.853 230.447 856.853 230.332C856.969 229.986 857.2 229.756 857.431 229.525C857.547 229.41 857.662 229.294 857.778 229.179L858.124 228.948L857.893 229.294C857.893 228.026 857.893 226.758 857.778 225.605C857.662 224.337 857.547 223.068 857.085 222.031C856.969 221.8 856.853 221.569 856.622 221.454C856.507 221.339 856.276 221.224 856.045 221.224C855.929 221.224 855.814 221.223 855.698 221.339C855.583 221.339 855.352 221.454 855.236 221.454C855.005 221.569 854.774 221.685 854.543 221.915C854.312 222.146 854.081 222.261 853.965 222.492C853.85 222.722 853.619 222.953 853.503 223.299C853.272 223.875 853.157 224.452 853.157 225.144C852.925 224.567 852.925 223.875 853.041 223.184C853.041 222.838 853.156 222.492 853.388 222.261C853.503 221.915 853.734 221.685 853.965 221.454L854.312 221.108L854.774 220.762C854.889 220.647 855.121 220.647 855.236 220.532C855.352 220.416 855.583 220.416 855.814 220.301C856.276 220.186 856.738 220.301 857.085 220.647C857.431 220.878 857.662 221.223 857.778 221.569C858.124 222.261 858.24 222.838 858.471 223.529C858.586 224.221 858.702 224.798 858.702 225.49C858.817 226.758 858.817 228.026 858.702 229.41V229.64L858.471 229.756C858.24 229.871 858.009 229.986 857.893 230.217C857.778 230.332 857.547 230.563 857.431 230.678C857.316 230.793 857.316 230.909 857.316 231.024C857.316 231.139 857.2 231.254 857.2 231.37C857.2 231.6 857.2 231.831 857.2 232.062C857.316 232.523 857.547 232.984 857.893 233.445C858.586 233.906 858.933 234.252 859.28 234.598Z" fill="#DD9078"/>
<path d="M877.418 221.8C877.418 221.8 877.533 222.031 877.649 222.492C877.764 222.722 877.764 222.953 877.88 223.184C877.995 223.414 878.111 223.76 878.342 224.106C878.457 224.452 878.804 224.682 878.92 225.028C879.035 225.144 879.151 225.259 879.382 225.49C879.497 225.605 879.613 225.72 879.844 225.835C880.19 226.066 880.537 226.181 880.884 226.297C881.115 226.297 881.23 226.412 881.461 226.412C881.692 226.412 881.808 226.412 882.039 226.297L882.617 226.066L883.194 225.72C883.541 225.489 883.772 225.144 884.003 224.798C884.234 224.452 884.35 224.106 884.581 223.76C884.696 223.414 884.812 223.068 884.812 222.607C884.812 222.261 884.812 221.915 884.927 221.685C884.927 221.339 884.927 221.108 884.927 220.878C884.927 220.416 884.927 220.186 884.927 220.186C884.927 220.186 885.043 220.416 885.158 220.878C885.274 221.108 885.274 221.339 885.389 221.685C885.389 222.031 885.505 222.376 885.505 222.722C885.505 223.068 885.505 223.529 885.389 223.991C885.274 224.452 885.158 224.913 884.927 225.374C884.696 225.835 884.35 226.297 883.887 226.642L883.194 227.104C882.963 227.219 882.617 227.334 882.385 227.45C882.154 227.45 881.808 227.565 881.461 227.565C881.23 227.565 880.884 227.45 880.653 227.45C880.075 227.334 879.613 226.988 879.151 226.642C878.689 226.297 878.457 225.835 878.226 225.49C877.995 225.028 877.764 224.682 877.649 224.337C877.533 223.991 877.418 223.645 877.418 223.299C877.418 222.953 877.418 222.722 877.418 222.492C877.418 222.031 877.418 221.8 877.418 221.8Z" fill="#1F2733"/>
<path d="M898.329 218.341C898.329 218.341 898.444 218.572 898.56 219.033C898.675 219.263 898.675 219.494 898.791 219.725C898.906 219.955 899.022 220.301 899.253 220.647C899.368 220.993 899.715 221.223 899.831 221.569C899.946 221.685 900.062 221.8 900.293 222.031C900.408 222.146 900.524 222.261 900.755 222.376C901.101 222.607 901.448 222.722 901.795 222.838C902.026 222.838 902.141 222.953 902.372 222.953C902.603 222.953 902.719 222.953 902.95 222.838L903.527 222.607L904.105 222.261C904.452 222.031 904.683 221.685 904.914 221.339C905.145 220.993 905.26 220.647 905.491 220.301C905.607 219.955 905.723 219.609 905.723 219.148C905.723 218.802 905.723 218.456 905.838 218.226C905.838 217.88 905.838 217.649 905.838 217.419C905.838 216.957 905.838 216.727 905.838 216.727C905.838 216.727 905.954 216.957 906.069 217.419C906.185 217.649 906.185 217.88 906.3 218.226C906.3 218.572 906.416 218.918 906.416 219.263C906.416 219.609 906.416 220.071 906.3 220.532C906.185 220.993 906.069 221.454 905.838 221.915C905.607 222.376 905.26 222.838 904.798 223.184L904.105 223.645C903.874 223.76 903.527 223.875 903.296 223.991C903.065 223.991 902.719 224.106 902.372 224.106C902.141 224.106 901.795 223.991 901.563 223.991C900.986 223.875 900.524 223.529 900.062 223.184C899.599 222.838 899.368 222.376 899.137 222.031C898.906 221.569 898.675 221.223 898.56 220.878C898.444 220.532 898.329 220.186 898.329 219.84C898.329 219.494 898.329 219.263 898.329 219.033C898.329 218.572 898.329 218.341 898.329 218.341Z" fill="#1F2733"/>
<path d="M879.238 238.103C879.238 238.103 879.122 238.103 879.238 238.219C879.353 238.334 879.584 238.449 879.815 238.565C880.277 238.91 881.086 239.256 882.01 239.718C882.935 240.179 884.09 240.64 885.245 240.986C885.823 241.216 886.516 241.332 887.094 241.447C887.671 241.562 888.364 241.678 889.058 241.793C890.328 241.908 891.599 242.024 892.87 241.908C894.141 241.793 895.181 241.562 896.22 241.216C897.145 240.871 897.953 240.64 898.531 240.409C899.109 240.179 899.455 240.063 899.455 240.063C899.455 240.063 899.224 240.409 898.762 240.755C898.3 241.216 897.607 241.793 896.683 242.369C895.758 242.946 894.488 243.522 893.101 243.753C891.715 244.099 890.213 244.099 888.711 243.984C888.018 243.868 887.209 243.753 886.516 243.522C885.823 243.292 885.13 243.061 884.552 242.715C883.281 242.139 882.241 241.447 881.433 240.755C880.624 240.063 879.931 239.372 879.584 238.795C879.353 238.565 879.238 238.334 879.238 238.103C879.122 238.219 879.122 238.103 879.238 238.103Z" fill="#DD9078"/>
<path d="M897.289 265.613C897.289 265.613 926.865 262.5 930.677 285.099C934.49 307.813 934.143 313.923 934.143 313.923L905.261 309.657L897.289 265.613Z" fill="#6633CC"/>
<path d="M922.242 283.83C920.509 269.417 905.837 266.304 897.288 265.612C893.476 270.916 888.161 274.721 880.883 274.952C872.565 275.182 864.94 272.3 860.896 265.958C847.957 267.457 835.133 271.147 832.245 279.909C826.122 298.357 831.436 399.82 831.436 399.82C831.436 399.82 883.193 408.698 925.708 400.627C925.593 400.742 924.553 303.084 922.242 283.83Z" fill="#6633CC"/>
<path opacity="0.2" d="M829.242 329.258C829.473 362.695 831.437 399.936 831.437 399.936C831.437 399.936 883.194 408.814 925.709 400.743C925.709 400.743 924.901 326.606 923.168 294.784C891.859 306.429 860.551 317.959 829.242 329.258Z" fill="#352C38"/>
<path d="M861.128 356.007C861.128 356.007 859.972 352.664 865.287 350.473C870.601 348.282 925.362 333.985 928.828 334.447C932.294 334.908 974.693 339.981 975.387 342.287C976.08 344.593 924.669 361.196 924.669 361.196L861.128 356.007Z" fill="#E1EDFF"/>
<path d="M927.558 365.577C927.558 365.577 867.598 365.347 862.977 359.928C858.355 354.509 858.24 350.588 884.465 355.2C910.69 359.812 925.825 359.12 925.825 359.12C925.825 359.12 973.885 336.753 975.503 342.172C977.005 347.706 982.088 346.322 927.558 365.577Z" fill="#C0D5FF"/>
<path d="M975.387 342.287C973.885 336.868 925.709 359.236 925.709 359.236C925.709 359.236 925.594 359.236 925.247 359.236C926.287 361.311 927.096 363.271 928.02 365.462C982.088 346.322 977.005 347.706 975.387 342.287Z" fill="#B1C5E8"/>
<path d="M859.394 343.67C859.394 343.67 858.239 340.327 863.553 338.136C868.868 335.945 923.629 321.648 927.095 322.11C930.561 322.571 972.96 327.644 973.653 329.95C974.347 332.256 922.936 348.859 922.936 348.859L859.394 343.67Z" fill="#E1EDFF"/>
<path d="M925.825 353.356C925.825 353.356 865.865 353.125 861.244 347.706C856.622 342.287 856.507 338.367 882.732 342.979C908.957 347.591 924.092 346.899 924.092 346.899C924.092 346.899 972.152 324.531 973.77 329.95C975.156 335.369 980.355 333.985 925.825 353.356Z" fill="#C0D5FF"/>
<path d="M973.654 330.065C972.152 324.646 923.977 347.014 923.977 347.014C923.977 347.014 923.861 347.014 923.514 347.014C924.554 349.09 925.363 351.05 926.287 353.24C980.24 333.985 975.156 335.369 973.654 330.065Z" fill="#B1C5E8"/>
<path d="M859.164 333.639C859.164 333.639 858.124 330.757 863.207 328.797C868.291 326.837 921.319 314.269 924.669 314.73C928.02 315.192 969.033 319.688 969.726 321.648C970.419 323.608 920.626 338.367 920.626 338.367L859.164 333.639Z" fill="#E1EDFF"/>
<path d="M923.399 342.172C923.399 342.172 865.403 341.941 860.897 337.214C856.392 332.486 856.392 329.027 881.693 333.063C906.994 337.098 921.666 336.522 921.666 336.522C921.666 336.522 968.224 316.806 969.726 321.648C971.228 326.376 976.196 325.107 923.399 342.172Z" fill="#C0D5FF"/>
<path d="M969.726 321.648C968.224 316.921 921.666 336.522 921.666 336.522C921.666 336.522 921.55 336.522 921.204 336.522C922.128 338.251 923.052 340.096 923.861 341.941C976.196 325.107 971.228 326.376 969.726 321.648Z" fill="#B1C5E8"/>
<path d="M860.781 320.15C860.781 320.15 859.857 317.267 865.056 315.422C870.255 313.693 923.629 303.085 926.98 303.662C930.33 304.123 971.112 310.234 971.69 312.194C972.267 314.154 922.012 326.952 922.012 326.952L860.781 320.15Z" fill="white"/>
<path d="M924.67 331.102C924.67 331.102 866.674 328.681 862.399 323.838C858.124 318.88 858.124 315.537 883.31 320.494C908.495 325.452 923.168 325.452 923.168 325.452C923.168 325.452 970.419 307.581 971.69 312.308C973.077 317.035 978.044 315.998 924.67 331.102Z" fill="#C0D5FF"/>
<path d="M971.69 312.309C970.419 307.467 923.168 325.453 923.168 325.453C923.168 325.453 923.052 325.453 922.706 325.453C923.63 327.298 924.439 329.143 925.132 330.988C977.929 315.999 972.961 317.036 971.69 312.309Z" fill="#B1C5E8"/>
<path d="M830.628 322.34L859.164 315.422C859.164 315.422 865.287 356.93 866.905 359.236C868.522 361.542 916.236 363.848 916.236 363.848L930.1 364.655C930.1 364.655 871.526 389.213 854.659 379.298C837.56 369.151 830.628 322.34 830.628 322.34Z" fill="#FFB39F"/>
<path d="M833.401 327.298C842.181 324.646 850.731 321.418 859.742 319.458C859.395 316.921 859.164 315.422 859.164 315.422L830.628 322.34C830.628 322.34 830.975 324.416 831.553 327.875C832.246 327.644 832.823 327.413 833.401 327.298Z" fill="#E09B8D"/>
<path d="M924.785 368.46C924.785 368.46 946.505 362.695 946.505 358.313C946.505 353.932 938.649 338.136 944.194 359.236C944.194 359.236 932.641 330.642 941.884 360.619C941.884 360.619 932.872 337.329 938.995 361.196C938.995 361.196 929.753 345.054 936.454 362.349L928.136 365.462L908.149 365.231L897.52 375.608L924.785 368.46Z" fill="#FFB39F"/>
<path d="M975.618 347.36C975.618 347.36 964.065 318.766 973.308 348.744C973.308 348.744 964.297 325.453 970.42 349.32C970.42 349.32 961.177 333.178 967.069 350.588L960.715 353.586C963.026 353.817 966.029 353.701 968.456 352.894C975.849 351.395 977.929 348.859 977.929 346.553C977.929 342.172 970.073 326.376 975.618 347.36Z" fill="#FFB39F"/>
<path d="M1005.08 650.825C1005.08 654.976 1001.73 658.435 997.569 658.55C993.41 658.55 989.944 655.207 989.828 651.056L989.482 626.613C989.482 622.462 992.832 619.003 996.991 618.888C1001.15 618.888 1004.62 622.231 1004.73 626.382L1005.08 650.825Z" fill="#091E1D"/>
<path d="M898.675 652.095C898.675 656.245 895.325 659.704 891.166 659.82C887.007 659.82 883.541 656.476 883.425 652.325L883.079 627.882C883.079 623.731 886.429 620.272 890.588 620.157C894.747 620.157 898.213 623.501 898.329 627.651L898.675 652.095Z" fill="#091E1D"/>
<path d="M996.529 633.415C996.645 642.87 989.02 650.595 979.546 650.71L908.38 651.517C898.906 651.633 891.166 644.023 891.05 634.568L883.425 472.92C883.31 463.466 890.935 455.741 900.408 455.625L983.012 454.588C992.485 454.472 1000.23 462.082 1000.34 471.536L996.529 633.415Z" fill="#322153"/>
<path d="M999.879 487.793L1000.23 471.767C1000.11 462.313 992.37 454.703 982.897 454.818L900.293 455.856C890.819 455.971 883.194 463.696 883.31 473.151L884.119 489.177L999.879 487.793Z" fill="#1C0C3B"/>
<path d="M1013.97 467.732C1013.97 470.383 1011.89 472.459 1009.24 472.574L874.299 474.188C871.641 474.188 869.562 472.113 869.446 469.461L869.215 452.397C869.215 449.745 871.295 447.67 873.952 447.554L1008.89 445.94C1011.55 445.94 1013.63 448.016 1013.74 450.667L1013.97 467.732Z" fill="#322153"/>
<path d="M942.345 515.119L958.057 505.665L954.245 515.465L942.345 515.119Z" fill="white"/>
<path d="M936.454 500.246C936.454 500.246 937.724 500.246 939.688 503.243C941.652 506.241 946.043 514.312 946.043 514.312L954.014 510.738L955.863 507.625C955.863 507.625 952.397 500.707 949.624 500.246H936.454Z" fill="white"/>
<path d="M932.063 502.321C932.063 502.321 934.49 499.669 936.454 501.053C938.418 502.437 941.883 508.202 941.883 508.202L936.223 518.117L926.056 512.468L932.063 502.321Z" fill="white"/>
<path d="M949.509 527.456L950.317 545.673L943.501 537.718L949.509 527.456Z" fill="white"/>
<path d="M965.452 529.301C965.452 529.301 964.874 530.454 961.293 530.8C957.711 531.146 948.469 531.146 948.469 531.146L947.776 539.908L949.624 543.022C949.624 543.022 957.365 543.367 959.098 541.061L965.452 529.301Z" fill="white"/>
<path d="M965.567 524.458C965.567 524.458 966.838 527.802 964.643 528.955C962.563 529.993 955.747 530.223 955.747 530.223L949.624 520.538L959.444 514.197L965.567 524.458Z" fill="white"/>
<path d="M935.76 527.226L919.585 518.694L929.868 516.849L935.76 527.226Z" fill="white"/>
<path d="M926.056 540.024C926.056 540.024 925.363 538.986 926.865 535.758C928.367 532.529 932.988 524.574 932.988 524.574L925.825 519.616L922.243 519.731C922.243 519.731 918.084 526.303 919.124 528.84L926.056 540.024Z" fill="white"/>
<path d="M930.215 542.56C930.215 542.56 926.634 541.868 926.865 539.562C926.98 537.141 930.215 531.261 930.215 531.261L941.653 530.915L942.115 542.56H930.215Z" fill="white"/>
<defs>
<linearGradient id="paint0_linear" x1="931.5" y1="313.5" x2="1430" y2="812" gradientUnits="userSpaceOnUse">
<stop stop-color="white"/>
<stop offset="1" stop-color="white" stop-opacity="0"/>
</linearGradient>
</defs>
</svg>
